<?xml version="1.0" standalone="no"?><!DOCTYPE svg PUBLIC "-//W3C//DTD SVG 1.1//EN" "http://www.w3.org/Graphics/SVG/1.1/DTD/svg11.dtd"><svg class="icon" height="512" viewBox="0 0 1024 1024" version="1.1" xmlns="http://www.w3.org/2000/svg"><path d="M560.7 543.7c60.4-46.8 96.2-120.3 96.2-199 0-136.8-107-248.1-238.4-248.1S180 207.9 180 344.7c0 78.7 35.7 152.2 96.2 199C141.2 604.1 64 719.3 64 861.5c0 8.8 0.5 17.4 1.1 26l0.1 0.6c0 1.6 0.2 3.2 0.4 4.7l0.1 0.9h0.1c3.1 19 19.2 33.6 38.5 33.6 21.5 0 39-18.1 39-40.4 0-1-0.1-1.9-0.3-3.6-0.6-7.2-1.1-14.4-1.1-21.8 0-152.9 118.9-268.3 276.6-268.3 157.7 0 276.7 115.3 276.7 268.3 0 7.7-0.5 15.2-1.2 22.7l-0.1 1.5v0.8l-0.9 7.3h1.7c3.5 18.7 19.2 32.6 38.2 32.6 19 0 34.8-13.9 38.3-32.6l0.7-6.3c0.7-8.6 1.1-17.2 1.1-26-0.1-142.2-77.2-257.4-212.3-317.8z m17.4-199c0 91.8-71.6 166.5-159.6 166.5s-159.6-74.7-159.6-166.5 71.6-166.5 159.6-166.5 159.6 74.7 159.6 166.5zM783.5 538.1c50-39.3 79.5-100.6 79.5-166.2 0-97.3-63.6-180.7-154.6-202.8-1.4-0.4-2.9-0.4-4.4-0.1-0.8-0.1-1.6-0.2-2.4-0.2-22 0-39.9 18.5-39.9 41.3 0 20.4 14.2 37.4 32.1 40.2 2.7 1.1 6.1 2.1 7.1 2.3 48.3 17.1 80.7 64.3 80.7 117.6 0 60-41 111.3-97.3 122l-1.6 0.3c-22.1 2.5-39.2 22-39.2 45.2 0 23.6 17.2 42.9 39.6 45.3l2.7 0.5C804.4 595.9 881 681.2 881 800.6c0 22.5 17.7 40.9 39.5 40.9 20.9 0 38-16.7 39.3-38.3l0.2-2.6c0-116.8-64.1-211.9-176.5-262.5z" /></svg>